<svg width="8" height="14" viewBox="0 0 8 14" fill="none" xmlns="http://www.w3.org/2000/svg">
<path d="M7.31341 0.0745243L5.60446 0.0717773C3.68452 0.0717773 2.44377 1.34704 2.44377 3.32085V4.81889H0.725502C0.577024 4.81889 0.456787 4.93948 0.456787 5.08823V7.25872C0.456787 7.40746 0.577161 7.52791 0.725502 7.52791H2.44377V13.0047C2.44377 13.1535 2.56401 13.2739 2.71249 13.2739H4.95434C5.10282 13.2739 5.22305 13.1534 5.22305 13.0047V7.52791H7.23211C7.38059 7.52791 7.50082 7.40746 7.50082 7.25872L7.50165 5.08823C7.50165 5.01681 7.47327 4.94841 7.42295 4.89786C7.37264 4.84732 7.30409 4.81889 7.23279 4.81889H5.22305V3.54898C5.22305 2.93861 5.36824 2.62876 6.16191 2.62876L7.31313 2.62835C7.46148 2.62835 7.58171 2.50776 7.58171 2.35915V0.343724C7.58171 0.195252 7.46161 0.074799 7.31341 0.0745243Z" fill="#8F8E94"/>
</svg>
