<svg width="24" height="24" viewBox="0 0 24 24" fill="none" xmlns="http://www.w3.org/2000/svg">
<path d="M12 2C10.0222 2 8.08879 2.58649 6.4443 3.6853C4.79981 4.78412 3.51809 6.3459 2.76121 8.17317C2.00433 10.0004 1.8063 12.0111 2.19215 13.9509C2.578 15.8907 3.53041 17.6725 4.92894 19.0711C6.32746 20.4696 8.10929 21.422 10.0491 21.8079C11.9889 22.1937 13.9996 21.9957 15.8268 21.2388C17.6541 20.4819 19.2159 19.2002 20.3147 17.5557C21.4135 15.9112 22 13.9778 22 12C22 10.6868 21.7413 9.38642 21.2388 8.17317C20.7363 6.95991 19.9997 5.85752 19.0711 4.92893C18.1425 4.00035 17.0401 3.26375 15.8268 2.7612C14.6136 2.25866 13.3132 2 12 2ZM12 20C10.4178 20 8.87104 19.5308 7.55544 18.6518C6.23985 17.7727 5.21447 16.5233 4.60897 15.0615C4.00347 13.5997 3.84504 11.9911 4.15372 10.4393C4.4624 8.88743 5.22433 7.46197 6.34315 6.34315C7.46197 5.22433 8.88743 4.4624 10.4393 4.15372C11.9911 3.84504 13.5997 4.00346 15.0615 4.60896C16.5233 5.21447 17.7727 6.23984 18.6518 7.55544C19.5308 8.87103 20 10.4177 20 12C20 14.1217 19.1572 16.1566 17.6569 17.6569C16.1566 19.1571 14.1217 20 12 20Z" fill="#909090"/>
<path d="M12 10C11.7348 10 11.4804 10.1054 11.2929 10.2929C11.1054 10.4804 11 10.7348 11 11V17C11 17.2652 11.1054 17.5196 11.2929 17.7071C11.4804 17.8946 11.7348 18 12 18C12.2652 18 12.5196 17.8946 12.7071 17.7071C12.8946 17.5196 13 17.2652 13 17V11C13 10.7348 12.8946 10.4804 12.7071 10.2929C12.5196 10.1054 12.2652 10 12 10Z" fill="#909090"/>
<path d="M12.7 6.3C12.6113 6.20349 12.5019 6.12829 12.38 6.08C12.258 6.02912 12.1272 6.00292 11.995 6.00292C11.8628 6.00292 11.732 6.02912 11.61 6.08C11.4881 6.12829 11.3787 6.20349 11.29 6.3C11.1965 6.39127 11.1217 6.49998 11.07 6.62C11.0222 6.74091 10.9984 6.86999 11 7C10.9989 7.13322 11.0226 7.26549 11.07 7.39C11.1775 7.63029 11.3697 7.82255 11.61 7.93C11.734 7.97911 11.8666 8.00291 12 8C12.13 8.00159 12.2591 7.97782 12.38 7.93C12.5 7.87828 12.6087 7.80354 12.7 7.71C12.7965 7.62127 12.8717 7.51188 12.92 7.39C12.9704 7.26601 12.9975 7.13381 13 7C12.9984 6.86932 12.9712 6.74022 12.92 6.62C12.8717 6.49812 12.7965 6.38873 12.7 6.3Z" fill="#909090"/>
</svg>
