<svg width="20" height="20" viewBox="0 0 20 20" fill="none" xmlns="http://www.w3.org/2000/svg">
<g clip-path="url(#clip0_214_6280)">
<path d="M18.2997 14.1449V16.6539C18.3006 16.8868 18.2529 17.1174 18.1595 17.3308C18.0663 17.5442 17.9294 17.7358 17.7577 17.8932C17.5861 18.0507 17.3835 18.1706 17.1629 18.2451C16.9423 18.3198 16.7084 18.3475 16.4764 18.3265C13.9029 18.0469 11.4308 17.1675 9.25886 15.759C7.23813 14.475 5.5249 12.7617 4.24085 10.741C2.82742 8.55916 1.94782 6.07507 1.67329 3.48996C1.65239 3.25868 1.67988 3.02559 1.754 2.80552C1.82812 2.58545 1.94725 2.38322 2.10381 2.21171C2.26036 2.04021 2.45092 1.90318 2.66334 1.80936C2.87576 1.71553 3.10539 1.66696 3.33761 1.66674H5.84661C6.25249 1.66274 6.64597 1.80648 6.95373 2.07114C7.26147 2.33579 7.46248 2.70333 7.51928 3.10524C7.62518 3.90818 7.82158 4.69656 8.10472 5.45534C8.21724 5.75469 8.24159 6.08001 8.17489 6.39278C8.10819 6.70554 7.95323 6.99262 7.72837 7.22001L6.66622 8.28216C7.85679 10.376 9.59041 12.1096 11.6842 13.3002L12.7464 12.238C12.9737 12.0131 13.2609 11.8582 13.5736 11.7915C13.8864 11.7248 14.2117 11.7492 14.5111 11.8617C15.2698 12.1448 16.0582 12.3412 16.8612 12.4471C17.2674 12.5044 17.6385 12.7091 17.9037 13.0221C18.1689 13.3351 18.3098 13.7347 18.2997 14.1449Z" stroke="#909090" stroke-width="1.5" stroke-linecap="round" stroke-linejoin="round"/>
</g>
<defs>
<clipPath id="clip0_214_6280">
<rect width="20" height="20" fill="white"/>
</clipPath>
</defs>
</svg>
