<svg width="13" height="9" viewBox="0 0 13 9" fill="none" xmlns="http://www.w3.org/2000/svg">
<path d="M12.1357 1.48707C11.9943 0.970688 11.58 0.56363 11.0546 0.424584C10.0947 0.166504 6.2551 0.166504 6.2551 0.166504C6.2551 0.166504 2.41565 0.166504 1.45577 0.4148C0.940451 0.553698 0.516025 0.970762 0.374675 1.48707C0.12207 2.43023 0.12207 4.38621 0.12207 4.38621C0.12207 4.38621 0.12207 6.35205 0.374675 7.28535C0.516175 7.80166 0.930344 8.20872 1.45584 8.34776C2.42576 8.60592 6.25525 8.60592 6.25525 8.60592C6.25525 8.60592 10.0947 8.60592 11.0546 8.35762C11.5801 8.21865 11.9943 7.81159 12.1358 7.29528C12.3883 6.35205 12.3883 4.39614 12.3883 4.39614C12.3883 4.39614 12.3985 2.43023 12.1357 1.48707ZM5.03265 6.19321V2.5792L8.22547 4.38621L5.03265 6.19321Z" fill="#8F8E94"/>
</svg>
